<svg xmlns="http://www.w3.org/2000/svg" width="44.518" height="44.52" viewBox="0 0 44.518 44.52">
  <g id="arvr" transform="translate(0.3 0.301)">
    <path id="Path_92683" data-name="Path 92683" d="M48.572,30.93l-7.805-4.916V12.86A3.864,3.864,0,0,0,36.906,9H16.92a3.864,3.864,0,0,0-3.86,3.86v1.973a.643.643,0,0,0,1.287,0V12.86a2.576,2.576,0,0,1,2.573-2.573H36.906A2.576,2.576,0,0,1,39.48,12.86V25.2l-1.554-.979a.643.643,0,0,0-.686,1.089l2.24,1.411v9.5l-2.24,1.411a.643.643,0,0,0,.686,1.089l1.554-.979V49.059a2.576,2.576,0,0,1-2.573,2.573H30a.643.643,0,1,0,0,1.287h6.905a3.864,3.864,0,0,0,3.86-3.86V36.934l7.805-4.916a.643.643,0,0,0,0-1.089Zm-7.805,4.484V27.535l6.255,3.94Z" transform="translate(-4.955 -9)" fill="#1883b3" stroke="#3493bd" stroke-width="0.6"/>
    <path id="Path_92684" data-name="Path 92684" d="M31.045,47.544H20.966a2.576,2.576,0,0,1-2.573-2.573V33.656l1.554.979a.643.643,0,0,0,.686-1.089l-2.24-1.411v-9.5l2.24-1.411a.643.643,0,1,0-.686-1.089l-1.554.979V13.747a.643.643,0,1,0-1.287,0v8.179L9.3,26.841a.643.643,0,0,0,0,1.089l7.805,4.916V44.97a3.864,3.864,0,0,0,3.86,3.86H31.045a.643.643,0,0,0,0-1.287ZM10.851,27.386l6.255-3.94v7.879Z" transform="translate(-9 -4.912)" fill="#1883b3" stroke="#3493bd" stroke-width="0.6"/>
    <path id="Path_92685" data-name="Path 92685" d="M23,10.289H18.71a.643.643,0,1,0,0,1.287H23a.643.643,0,1,0,0-1.287Z" transform="translate(0.032 -7.716)" fill="#1883b3" stroke="#3493bd" stroke-width="0.6"/>
    <path id="Path_92686" data-name="Path 92686" d="M21.4,11.288a.643.643,0,1,0,.081-.812A.648.648,0,0,0,21.4,11.288Z" transform="translate(3.243 -7.715)" fill="#1883b3" stroke="#3493bd" stroke-width="0.6"/>
    <path id="Path_92687" data-name="Path 92687" d="M16.294,19.949a.647.647,0,0,0-.29.537v9.693a.644.644,0,0,0,.3.542L23.635,35.4a.643.643,0,0,0,.689,0l7.42-4.679a.643.643,0,0,0,.3-.544V28.421a.643.643,0,1,0-1.287,0v1.4l-6.133,3.867V25.52l6.133-3.868v3.766a.643.643,0,1,0,1.287,0V20.486a.649.649,0,0,0-.3-.544l-7.42-4.679a.643.643,0,0,0-.689,0L16.3,19.944Zm7.689-3.38,6.212,3.917L23.983,24.4,21.99,23.132a.643.643,0,0,0-.692,1.085l2.04,1.3v8.167L17.29,29.827V21.66l1.471.939a.643.643,0,1,0,.692-1.085l-1.61-1.028Z" transform="translate(-2.022 -2.859)" fill="#1883b3" stroke="#3493bd" stroke-width="0.6"/>
    <path id="Path_92688" data-name="Path 92688" d="M18.7,14.964,15.99,16.677a.643.643,0,1,0,.688,1.087l2.706-1.713a.643.643,0,0,0-.688-1.087Z" transform="translate(-2.335 -3.158)" fill="#1883b3" stroke="#3493bd" stroke-width="0.6"/>
    <path id="Path_92689" data-name="Path 92689" d="M21.246,13.31l-2.54,1.6A.643.643,0,0,0,19.391,16l2.2-1.384L23.787,16a.643.643,0,0,0,.686-1.089l-2.54-1.6A.643.643,0,0,0,21.246,13.31Z" transform="translate(0.37 -4.805)" fill="#1883b3" stroke="#3493bd" stroke-width="0.6"/>
    <path id="Path_92690" data-name="Path 92690" d="M25.975,16.633l-2.684-1.669a.643.643,0,0,0-.679,1.093L25.3,17.725a.643.643,0,0,0,.679-1.093Z" transform="translate(4.258 -3.155)" fill="#1883b3" stroke="#3493bd" stroke-width="0.6"/>
    <path id="Path_92691" data-name="Path 92691" d="M25.334,24.244,22.6,25.919a.643.643,0,0,0,.673,1.1l2.729-1.675a.643.643,0,0,0-.673-1.1Z" transform="translate(4.248 6.093)" fill="#1883b3" stroke="#3493bd" stroke-width="0.6"/>
    <path id="Path_92692" data-name="Path 92692" d="M23.787,25.958l-2.2,1.384-2.2-1.384a.643.643,0,0,0-.686,1.089l2.54,1.6a.644.644,0,0,0,.686,0l2.54-1.6a.643.643,0,0,0-.686-1.089Z" transform="translate(0.37 7.796)" fill="#1883b3" stroke="#3493bd" stroke-width="0.6"/>
    <path id="Path_92693" data-name="Path 92693" d="M15.99,25.342l2.715,1.7a.643.643,0,0,0,.682-1.091l-2.715-1.7a.643.643,0,0,0-.683,1.091Z" transform="translate(-2.337 6.097)" fill="#1883b3" stroke="#3493bd" stroke-width="0.6"/>
  </g>
</svg>
